<svg width="260" height="216" viewBox="0 0 260 216" fill="none" xmlns="http://www.w3.org/2000/svg">
<path d="M142.181 190.748C83.2706 190.748 35.5143 189.26 35.5143 187.425C35.5143 185.589 83.2706 184.102 142.181 184.102C201.091 184.102 248.848 185.589 248.848 187.425C248.848 189.26 201.091 190.748 142.181 190.748Z" fill="#F0F7FF"/>
<path d="M208.43 172.847C208.43 179.756 202.812 185.357 195.882 185.357C188.952 185.357 183.334 179.756 183.334 172.847C183.334 165.938 188.952 160.338 195.882 160.338C202.812 160.338 208.43 165.938 208.43 172.847" fill="#808AAB"/>
<path d="M205.72 172.809C205.72 178.247 201.299 182.655 195.844 182.655C190.39 182.655 185.968 178.247 185.968 172.809C185.968 167.371 190.39 162.963 195.844 162.963C201.299 162.963 205.72 167.371 205.72 172.809" fill="#A4ABC2"/>
<path d="M205.404 172.809C205.404 178.071 201.125 182.338 195.844 182.338C190.564 182.338 186.284 178.071 186.284 172.809C186.284 167.547 190.564 163.28 195.844 163.28C201.125 163.28 205.404 167.547 205.404 172.809Z" stroke="white" stroke-width="0.633333"/>
<path d="M192.792 172.907L194.229 167.438H197.461L196.383 171.449L197.82 171.084L197.461 172.543L196.148 172.907L195.429 175.46H200.334L199.616 177.283H191.715L192.433 174.366L191.355 174.731L191.715 173.272L192.792 172.907Z" fill="white"/>
<path fill-rule="evenodd" clip-rule="evenodd" d="M25.2674 98.2015C22.3796 103.627 22.3796 111.506 25.2674 121.838C28.1552 132.171 32.4654 152.855 38.198 183.892H42.1304C42.8733 164.259 43.2448 149.085 43.2448 138.37C43.2448 127.655 42.5823 113.296 41.2574 95.2949L25.2674 98.2015Z" fill="#D0D5E4"/>
<path fill-rule="evenodd" clip-rule="evenodd" d="M38.1973 182.564V186.89C46.8062 187.752 50.8798 187.51 50.418 186.161C49.9561 184.813 47.1934 184.419 42.1297 184.98V182.564H38.1973Z" fill="#ADB8CB"/>
<path fill-rule="evenodd" clip-rule="evenodd" d="M26.2285 175.674L25.1055 179.852C33.1973 182.906 37.1951 183.723 37.099 182.301C37.003 180.88 34.4366 179.786 29.3999 179.021L30.0269 176.688L26.2285 175.674Z" fill="#ADB8CB"/>
<path fill-rule="evenodd" clip-rule="evenodd" d="M32.6599 96.3288C30.6196 103.598 29.5994 109.84 29.5994 115.054C29.5994 120.269 31.2157 128.442 34.4484 139.573C31.5894 143.617 29.5797 148.002 28.419 152.728C27.2584 157.453 26.5282 165.102 26.2285 175.674L30.0269 176.689C36.1318 162.826 40.7399 150.089 43.8512 138.478C46.9624 126.867 49.4646 113.85 51.3577 99.4258C47.299 97.0178 44.227 95.6411 42.1417 95.2957C40.0564 94.9503 36.8958 95.2947 32.6599 96.3288Z" fill="#EDF1F9"/>
<path fill-rule="evenodd" clip-rule="evenodd" d="M35.9004 64.8752C32.6231 69.3646 28.7235 77.773 40.0635 75.0274C51.4035 72.2818 59.7499 67.3583 64.4697 63.7702C67.6163 61.378 71.4325 54.154 75.9182 42.098L72.9164 41.1211L58.3709 57.1112C45.5754 59.2943 38.0852 61.8823 35.9004 64.8752Z" fill="#B9C6DC"/>
<rect x="107.833" y="17.1152" width="44.6923" height="44.8333" rx="5.5" transform="rotate(90 107.833 17.1152)" fill="white" stroke="#E0E4F0"/>
<path fill-rule="evenodd" clip-rule="evenodd" d="M67.5 40.0514L68.4539 41.5381L85.9161 31.9774L82.1946 30.4185L94.5918 23.9329L95.5289 24.4065L98.3333 21.5996L92.5403 22.8583L93.7679 23.4769L77.9013 30.4185L82.5826 31.9774L67.5 40.0514Z" fill="#E0E4F0"/>
<path d="M79.167 38.8828C79.167 37.7782 80.0624 36.8828 81.167 36.8828H82.7623C83.8669 36.8828 84.7623 37.7782 84.7623 38.8828V56.5516C84.7623 57.6562 83.8669 58.5516 82.7623 58.5516H81.167C80.0624 58.5516 79.167 57.6562 79.167 56.5516V38.8828Z" fill="#F4282D"/>
<path d="M88.6357 32.4453C88.6357 31.3407 89.5312 30.4453 90.6357 30.4453H92.2311C93.3356 30.4453 94.2311 31.3407 94.2311 32.4453V56.5504C94.2311 57.6549 93.3356 58.5504 92.2311 58.5504H90.6357C89.5312 58.5504 88.6357 57.6549 88.6357 56.5504V32.4453Z" fill="#F9A001"/>
<path d="M98.1045 28.584C98.1045 27.4794 98.9999 26.584 100.104 26.584H101.7C102.804 26.584 103.7 27.4794 103.7 28.584V56.7654C103.7 57.8699 102.804 58.7654 101.7 58.7654H100.104C98.9999 58.7654 98.1045 57.8699 98.1045 56.7654V28.584Z" fill="#33C15D"/>
<path fill-rule="evenodd" clip-rule="evenodd" d="M42.7037 58.1198C42.5754 49.6629 43.638 44.9476 45.8917 43.9738C49.2721 42.5132 54.467 47.1441 54.9173 50.6864C55.3676 54.2288 52.4945 57.3416 51.0669 55.6824C50.1152 54.5762 49.9072 55.5658 50.4431 58.6511L42.7037 58.1198Z" fill="#F0F7FF"/>
<path fill-rule="evenodd" clip-rule="evenodd" d="M41.281 46.6849C42.2262 44.3768 44.1821 43.125 46.197 43.125C48.212 43.125 47.0768 40.7864 47.6742 40.0588C48.4337 39.1336 52.2336 39.1336 51.4879 41.9991C50.6258 45.3121 48.6902 45.2285 48.5175 47.0009C48.3448 48.7733 49.3191 51.4391 50.6258 50.8459C51.9325 50.2528 53.6166 47.162 54.3236 48.0328C55.0307 48.9036 57.0058 53.2382 55.4548 54.8236C53.9039 56.4089 52.3125 56.9502 51.0673 55.9214C49.8222 54.8926 47.3263 48.2676 46.7617 49.5568C46.197 50.8459 48.5403 52.4725 47.0631 53.8835C45.586 55.2945 42.5112 55.6385 41.7912 53.8835C41.0711 52.1285 40.3357 48.9931 41.281 46.6849Z" fill="#2594FF"/>
<path fill-rule="evenodd" clip-rule="evenodd" d="M43.2448 56.3398C36.0067 59.1635 30.9366 70.0472 30.9366 76.921C30.9366 77.0241 28.8106 84.4923 24.5586 99.3256C32.4535 96.9109 38.0265 95.8406 41.2777 96.1145C44.5288 96.3884 47.8887 98.0315 51.3575 101.044C51.898 90.6141 52.458 83.7147 53.0374 80.3458C54.6757 70.8198 55.2323 68.19 53.646 62.5188C53.3686 61.5272 48.9958 54.0963 43.2448 56.3398Z" fill="#E0E4F0"/>
<path fill-rule="evenodd" clip-rule="evenodd" d="M46.3164 65.7053C43.0391 70.1947 39.1395 78.603 50.4795 75.8574C61.8195 73.1118 70.1659 68.1884 74.8858 64.6002C78.0323 62.2081 81.8485 54.9841 86.3343 42.9281L83.3324 41.9512L68.7869 57.9413C55.9914 60.1244 48.5012 62.7124 46.3164 65.7053Z" fill="#E0E4F0"/>
<path fill-rule="evenodd" clip-rule="evenodd" d="M85.4805 35.7682C87.3245 34.2269 89.4715 35.4519 89.9406 36.6266C90.4097 37.8013 89.753 39.0169 89.422 39.3452C88.1839 41.0072 87.1546 42.2012 86.334 42.9271L85.6791 44.8396L81.9979 44.0537C82.8874 42.6513 83.3321 41.9501 83.3321 41.9501C83.1319 40.7806 83.9256 37.0676 85.4805 35.7682Z" fill="#F0F7FF"/>
<rect x="-0.323097" y="0.628031" width="34.8975" height="117.483" rx="5.5" transform="matrix(0.306426 0.951895 -0.952619 0.304168 229.077 25.6664)" stroke="#E5E7EE"/>
<path d="M159.851 69.4738L164.878 62.5674L169.382 63.2501L175.305 56.0574L191.61 57.5675L199.925 49.6115L211.818 49.7025L221.345 33.23" stroke="#E5E7EE" stroke-width="1.5" stroke-linecap="round" stroke-linejoin="round"/>
<path d="M226.894 53.9995L160.834 75.1133" stroke="#E5E7EE" stroke-width="1.5"/>
<path d="M132.139 78.1993C127.897 73.0346 128.65 65.4261 133.822 61.2053C138.994 56.9845 146.626 57.7497 150.868 62.9143C155.111 68.079 154.357 75.6872 149.185 79.908C144.013 84.1288 136.382 83.3639 132.139 78.1993" fill="#E6980D"/>
<path d="M134.309 76.4279C130.947 72.3357 131.544 66.3072 135.642 62.963C139.74 59.6186 145.787 60.2248 149.149 64.317C152.51 68.4092 151.913 74.4377 147.815 77.7821C143.718 81.1263 137.671 80.5201 134.309 76.4279" fill="#F9A001"/>
<path d="M150.451 67.6302C152.008 72.4658 149.343 77.6392 144.499 79.1855C139.654 80.7318 134.465 78.0655 132.908 73.2299C131.351 68.3943 134.016 63.2209 138.86 61.6746C143.704 60.1283 148.894 62.7946 150.451 67.6302Z" stroke="white" stroke-width="0.633333"/>
<path d="M143.957 67.4786C144.124 67.7833 144.185 68.1348 144.129 68.4779C144.073 68.8209 143.904 69.1363 143.648 69.3745C144.107 69.3196 144.569 69.4265 144.955 69.6764C145.35 69.9868 145.607 70.437 145.674 70.9327C145.741 71.2116 145.758 71.5001 145.725 71.7852C145.692 72.0232 145.611 72.2525 145.488 72.4597C145.358 72.6767 145.188 72.8674 144.986 73.0215C144.772 73.2021 144.538 73.3573 144.288 73.4839C143.998 73.6331 143.699 73.7645 143.393 73.8774L143.909 75.4801L142.944 75.7882L142.439 74.2181L141.665 74.4649L142.176 76.0512L141.2 76.3628L140.682 74.7547L138.714 75.383L138.537 74.1574L139.244 73.9316C139.336 73.9106 139.416 73.8546 139.466 73.7756C139.517 73.6967 139.534 73.6012 139.514 73.5101L138.702 70.9893L138.109 69.1476C138.049 69.0264 137.944 68.9326 137.817 68.8854C137.689 68.8382 137.548 68.8411 137.422 68.8934L136.699 69.1245L136.368 68.0977L138.331 67.4711L137.818 65.8793L138.8 65.566L139.3 67.1197L140.073 66.873L139.573 65.3192L140.555 65.0059L141.065 66.5923C141.373 66.5217 141.685 66.4742 141.999 66.45C142.27 66.4333 142.542 66.4512 142.808 66.5032C143.068 66.5483 143.311 66.6582 143.516 66.8226C143.721 66.9961 143.879 67.2171 143.977 67.4662L143.957 67.4786ZM143.697 71.3479C143.652 71.2061 143.573 71.0772 143.467 70.972C143.374 70.8838 143.263 70.8152 143.142 70.7702C143.006 70.7228 142.863 70.6976 142.719 70.6955C142.567 70.6918 142.415 70.6963 142.264 70.709C142.099 70.7327 141.936 70.7648 141.775 70.8052L141.336 70.9453L140.624 71.1728L141.309 73.3024L142.187 73.0224L142.545 72.878C142.649 72.8447 142.761 72.779 142.89 72.7081C143.006 72.6428 143.118 72.5691 143.224 72.4876C143.315 72.4178 143.402 72.3421 143.483 72.261C143.563 72.1814 143.63 72.0894 143.68 71.9886C143.719 71.893 143.744 71.7923 143.753 71.6897C143.759 71.5747 143.744 71.4597 143.71 71.3499L143.697 71.3479ZM142.277 68.4943C142.241 68.3651 142.174 68.2466 142.081 68.1494C141.999 68.0655 141.904 67.9967 141.798 67.9462C141.685 67.8981 141.563 67.8718 141.44 67.8686C141.312 67.8598 141.183 67.8627 141.056 67.8774C140.921 67.8998 140.787 67.9304 140.656 67.9691C140.529 68.0006 140.405 68.0403 140.283 68.0881L139.691 68.2771L140.305 70.184L140.821 70.0195L141.139 69.918C141.253 69.8764 141.364 69.8268 141.472 69.7697C141.565 69.7399 141.662 69.6669 141.778 69.594C141.88 69.5371 141.973 69.465 142.054 69.3802C142.119 69.3028 142.18 69.2214 142.235 69.1365C142.288 69.0448 142.319 68.9428 142.327 68.8378C142.331 68.7231 142.314 68.6086 142.278 68.4997L142.277 68.4943Z" fill="white"/>
<path fill-rule="evenodd" clip-rule="evenodd" d="M222.785 171.207L227.519 176.21L226.584 184.91C223.06 185.269 221.298 185.13 221.298 184.494C221.298 183.859 222.334 183.194 224.404 182.5V177.611L220.658 174.349L222.785 171.207Z" fill="#ADB8CB"/>
<path fill-rule="evenodd" clip-rule="evenodd" d="M231.399 107.91C229.259 110.548 226.351 113.242 222.516 115.828L220.859 118.987L217.902 114.081C217.902 114.081 224.324 110.99 226.646 104.463" fill="#F0F7FF"/>
<mask id="mask0_984_32340" style="mask-type:alpha" maskUnits="userSpaceOnUse" x="204" y="115" width="18" height="66">
<path d="M221.251 115.113L215.907 180.96L211.975 180.948L204.206 115.113H221.251Z" fill="white"/>
</mask>
<g mask="url(#mask0_984_32340)">
<path d="M221.251 115.113L215.907 180.96L211.975 180.948L204.206 115.113H221.251Z" fill="#E0E4F0"/>
</g>
<mask id="mask1_984_32340" style="mask-type:alpha" maskUnits="userSpaceOnUse" x="183" y="115" width="40" height="60">
<path d="M218.187 115.113L193.749 147.066L222.784 171.206L220.782 174.456C198.445 164.445 186.234 156.481 184.15 150.565C182.066 144.648 187.495 132.831 200.436 115.113H218.187Z" fill="white"/>
</mask>
<g mask="url(#mask1_984_32340)">
<path d="M218.187 115.113L193.749 147.066L222.784 171.206L220.782 174.456C198.445 164.445 186.234 156.481 184.15 150.565C182.066 144.648 187.495 132.831 200.436 115.113H218.187Z" fill="url(#paint0_linear_984_32340)"/>
</g>
<path fill-rule="evenodd" clip-rule="evenodd" d="M215.907 180.949V185.275C207.298 186.137 203.225 185.894 203.687 184.546C204.148 183.198 206.911 182.804 211.975 183.364V180.949H215.907Z" fill="#ADB8CB"/>
<mask id="mask2_984_32340" style="mask-type:alpha" maskUnits="userSpaceOnUse" x="172" y="57" width="65" height="60">
<path d="M195.062 70.2003C202.548 71.6003 219.216 73.3302 224.62 74.0055C226.245 74.2087 227.731 75.0036 228.802 76.2332C233.049 81.1091 242.368 94.459 231.399 107.911C229.996 107.138 228.001 105.898 226.646 104.463C227.86 101.07 227.959 96.7323 225.416 91.4137C225.329 91.8352 225.222 92.2527 225.091 92.6633C221.586 103.681 221.399 112.85 221.407 114.963C221.408 115.25 221.234 115.508 220.966 115.615C216.352 117.449 204.247 116.357 201.266 115.917C200.719 115.836 200.352 115.331 200.427 114.788C201.89 104.271 194.382 86.9716 192.399 82.6385C192.108 82.0046 191.597 81.4956 190.958 81.2087C179.618 76.1185 174.687 68.2831 172.689 61.2244C174.417 58.9213 177.097 57.9158 178.966 57.4805C181.968 63.0256 186.952 68.6841 195.062 70.2003Z" fill="white"/>
</mask>
<g mask="url(#mask2_984_32340)">
<path d="M195.062 70.2003C202.548 71.6003 219.216 73.3302 224.62 74.0055C226.245 74.2087 227.731 75.0036 228.802 76.2332C233.049 81.1091 242.368 94.459 231.399 107.911C229.996 107.138 228.001 105.898 226.646 104.463C227.86 101.07 227.959 96.7323 225.416 91.4137C225.329 91.8352 225.222 92.2527 225.091 92.6633C221.586 103.681 221.399 112.85 221.407 114.963C221.408 115.25 221.234 115.508 220.966 115.615C216.352 117.449 204.247 116.357 201.266 115.917C200.719 115.836 200.352 115.331 200.427 114.788C201.89 104.271 194.382 86.9716 192.399 82.6385C192.108 82.0046 191.597 81.4956 190.958 81.2087C179.618 76.1185 174.687 68.2831 172.689 61.2244C174.417 58.9213 177.097 57.9158 178.966 57.4805C181.968 63.0256 186.952 68.6841 195.062 70.2003Z" fill="#E0E4F0"/>
</g>
<path fill-rule="evenodd" clip-rule="evenodd" d="M211.667 72.7106C211.796 64.2537 209.661 54.4378 207.407 53.4641C204.027 52.0035 198.832 56.6343 198.381 60.1767C197.931 63.719 200.804 66.8318 202.232 65.1726C203.184 64.0665 203.453 68.7945 202.917 71.8798L211.667 72.7106Z" fill="#F0F7FF"/>
<path fill-rule="evenodd" clip-rule="evenodd" d="M206.291 60.1055C206.291 60.1055 208.06 53.1996 202.109 53.6718L200.801 54.7763C200.801 54.7763 198.274 51.273 201.689 49.1721C205.103 47.0712 209.429 48.1438 211.401 52.8101C213.373 57.4768 213.933 60.671 211.613 63.2062C209.294 65.7416 208.006 63.2302 208.006 63.2302C208.006 63.2302 209.186 60.9508 208.516 59.8516C207.847 58.753 206.681 60.2624 206.681 60.2624L206.291 60.1055Z" fill="#2594FF"/>
<path fill-rule="evenodd" clip-rule="evenodd" d="M174.879 45.2421C175.977 43.517 177.541 40.5394 176.655 38.706C175.35 36.0035 172.187 36.2592 171.003 37.337C169.819 38.4149 169.922 40.1285 170.128 40.6717L172.206 45.3087C171.982 46.2831 170.485 53.4281 172.783 61.5836C174.549 59.2201 177.286 58.1882 179.194 57.7415C175.947 51.7155 174.969 45.8203 174.879 45.2421Z" fill="#F0F7FF"/>
<rect x="55.834" y="144.553" width="31.6667" height="42.3692" rx="6" fill="#33C15D"/>
<path d="M89.3448 122.254C86.9144 116.12 89.926 109.189 96.0715 106.774C102.217 104.359 109.169 107.374 111.599 113.508C114.03 119.642 111.018 126.573 104.873 128.988C98.7274 131.403 91.7752 128.388 89.3448 122.254" fill="#6E43CB"/>
<path d="M91.9239 121.24C89.9981 116.38 92.3843 110.888 97.2535 108.975C102.123 107.061 107.631 109.45 109.557 114.311C111.483 119.171 109.097 124.663 104.227 126.576C99.3581 128.49 93.8496 126.101 91.9239 121.24" fill="#926AE7"/>
<path d="M109.984 117.717C109.988 122.897 105.779 127.095 100.581 127.091C95.3825 127.087 91.1663 122.883 91.1623 117.702C91.1583 112.521 95.368 108.324 100.566 108.328C105.764 108.332 109.98 112.536 109.984 117.717Z" stroke="white" stroke-width="0.633333"/>
<g clip-path="url(#clip0_984_32340)">
<path d="M104.151 117.314L100.576 119.533L96.9921 117.308L100.569 111.071L104.151 117.314ZM100.576 120.246L96.9927 118.022L100.579 123.325L104.157 118.027L100.576 120.246Z" fill="white"/>
</g>
<path fill-rule="evenodd" clip-rule="evenodd" d="M87.2275 99.0593C88.9737 101.794 84.4115 105.071 84.6953 107.909C84.979 110.748 82.0627 112.044 77.7703 113.186C73.4781 114.329 71.4237 121.926 66.3688 123.446C61.3139 124.967 63.3038 128.05 60.5486 129.317C57.7934 130.584 62.3288 125.181 52.3142 127.233C42.2996 129.286 41.0957 119.172 43.2649 115.515C45.4342 111.859 48.1285 113.608 47.3768 109.99C46.6251 106.371 49.7846 104.849 54.3105 104.555C58.8362 104.261 57.2548 100.022 57.988 96.8181C58.721 93.615 66.7419 95.4021 70.5672 88.9018C74.3925 82.4015 84.1479 89.6545 84.1479 89.6545C88.8763 94.2856 85.4813 96.3242 87.2275 99.0593Z" fill="#2594FF"/>
<path fill-rule="evenodd" clip-rule="evenodd" d="M60.0557 141.136C77.2004 131.962 87.8067 128.541 91.8743 130.873C95.9419 133.206 103.587 146.137 114.81 169.667L110.475 173.137L91.8743 146.754L60.0557 141.136Z" fill="#D0D5E4"/>
<path fill-rule="evenodd" clip-rule="evenodd" d="M80.834 103.355L95.0516 98.3603L107.084 85.1543L109.167 88.062L99.85 103.355L80.834 117.112V103.355Z" fill="#E0E4F0"/>
<path fill-rule="evenodd" clip-rule="evenodd" d="M114.397 81.635C114.814 79.2723 112.677 78.0312 111.422 78.2135C110.167 78.3959 109.439 79.5707 109.319 80.0206C108.523 81.5874 108.015 82.9065 107.794 83.9778L105.08 87.0237C105.271 87.67 105.58 88.1499 106.005 88.4634C106.431 88.777 107.253 89.0018 108.471 89.1378C109.558 87.4332 110.101 86.5808 110.101 86.5808C111.217 86.169 114.046 83.6272 114.397 81.635Z" fill="#F0F7FF"/>
<path fill-rule="evenodd" clip-rule="evenodd" d="M56.3117 141.136C56.0038 151.947 60.1911 157.029 68.8735 156.383C77.5559 155.736 84.796 153.12 90.5936 148.534V188.217L95.1262 189.65C101.325 156.798 103.667 139.539 102.151 137.87C100.636 136.202 85.3562 137.291 56.3117 141.136Z" fill="#E0E4F0"/>
<path d="M99.688 198.297C99.7638 197.845 99.6924 197.447 99.4737 197.102C98.6128 195.745 96.995 195.278 95.9044 193.353C95.1773 192.07 94.8654 190.854 94.9686 189.707L90.9779 187.773L88.3345 193.196L99.688 198.297Z" fill="#ADB8CB"/>
<path d="M123.657 171.168C123.335 170.842 122.969 170.667 122.56 170.642C120.953 170.544 119.626 171.578 117.422 171.333C115.953 171.17 114.782 170.711 113.908 169.956L110.001 172.051L112.865 177.361L123.657 171.168Z" fill="#ADB8CB"/>
<path fill-rule="evenodd" clip-rule="evenodd" d="M77.2377 89.7459C80.6672 91.0026 82.3811 92.6787 82.3796 94.7742C82.378 96.8696 81.409 98.1749 79.4727 98.69L82.0735 103.442L71.6669 104.243L76.2113 98.0203C74.8102 96.8759 74.3938 95.9832 74.9624 95.3422C75.8151 94.3806 77.7975 94.2989 77.7987 92.6786C77.7995 91.5983 77.6125 90.6208 77.2377 89.7459Z" fill="#F0F7FF"/>
<mask id="mask3_984_32340" style="mask-type:alpha" maskUnits="userSpaceOnUse" x="52" y="101" width="34" height="42">
<path d="M52.3447 140.542C68.368 143.287 77.8855 142.945 80.8974 139.516C83.9092 136.087 84.287 120.683 85.0011 102.204L73.0942 101.51L52.3447 140.542Z" fill="white"/>
</mask>
<g mask="url(#mask3_984_32340)">
<path d="M52.3447 140.542C68.368 143.287 77.8855 142.945 80.8973 139.516C83.9092 136.087 81.3703 121.514 82.0844 103.035H72.0844L52.3447 140.542Z" fill="#B9C6DC"/>
</g>
<path fill-rule="evenodd" clip-rule="evenodd" d="M77.0988 105.287C73.6682 101.472 67.6631 102.833 67.6631 110.742C67.6631 118.652 71.6317 130.567 75.0672 132.077C77.28 133.05 87.6905 133.05 94.3691 132.077C98.6313 131.456 106.25 129.619 106.25 129.619L104.167 126.234C104.167 126.234 94.0974 126.234 79.7917 126.234C80.2835 114.812 79.3858 107.83 77.0988 105.287Z" fill="#E0E4F0"/>
<path fill-rule="evenodd" clip-rule="evenodd" d="M103.535 126.234H107.354L109.121 123.031C110.226 125.097 110.177 126.85 108.974 128.289C108.363 129.02 107.256 129.512 105.654 129.765C105.109 130.035 104.336 130.168 103.334 130.164L103.535 126.234Z" fill="#F0F7FF"/>
<defs>
<linearGradient id="paint0_linear_984_32340" x1="203.25" y1="115.113" x2="203.25" y2="174.456" gradientUnits="userSpaceOnUse">
<stop stop-color="#EFF3F9"/>
<stop offset="1" stop-color="#EAEDF6"/>
</linearGradient>
<clipPath id="clip0_984_32340">
<rect width="7.15887" height="12.2629" fill="white" transform="matrix(1.00072 0.000765646 0.000771715 0.999281 96.9873 111.068)"/>
</clipPath>
</defs>
</svg>
