<svg fill="none" height="215" viewBox="0 0 260 215" width="260" xmlns="http://www.w3.org/2000/svg" xmlns:xlink="http://www.w3.org/1999/xlink"><linearGradient id="a"><stop offset="0" stop-color="#eff3f9"/><stop offset="1" stop-color="#eaedf6"/></linearGradient><linearGradient id="b" gradientUnits="userSpaceOnUse" x1="147.708" x2="147.708" xlink:href="#a" y1="62.0193" y2="183.267"/><linearGradient id="c" gradientUnits="userSpaceOnUse" x1="60.0811" x2="60.0811" xlink:href="#a" y1="101.828" y2="178.536"/><linearGradient id="d" gradientUnits="userSpaceOnUse" x1="83.4279" x2="83.4279" xlink:href="#a" y1="55.4039" y2="80.8216"/><linearGradient id="e" gradientUnits="userSpaceOnUse" x1="27.6183" x2="27.6183" xlink:href="#a" y1="54.739" y2="94.0954"/><clipPath id="f"><path d="m0 0h9.48097v16.2531h-9.48097z" transform="matrix(.921436 -.395256 .398334 .914362 135.418 169.981)"/></clipPath><clipPath id="g"><path d="m101.667 104.192h29.1667v29.7692h-29.1667z"/></clipPath><path d="m135 195.981c-58.9105 0-106.6668-1.481-106.6668-3.308s47.7563-3.308 106.6668-3.308c58.91 0 106.667 1.481 106.667 3.308s-47.757 3.308-106.667 3.308z" fill="#f0f7ff"/><path d="m174.271 62.0193h-8.5c.005.0877.005.1758 0 .2635 0 .45-.09.8956-.263 1.3113-.174.4158-.428.7935-.749 1.1117-.32.3182-.701.5706-1.12.7428s-.868.2608-1.321.2608h-29.219c-.454 0-.903-.0886-1.322-.2608s-.799-.4246-1.12-.7428-.575-.6959-.748-1.1117c-.174-.4157-.263-.8613-.263-1.3113-.006-.0877-.006-.1758 0-.2635h-8.5c-1.409 0-2.76.5554-3.757 1.544-.996.9886-1.556 2.3295-1.556 3.7276v110.7041c0 1.398.56 2.739 1.556 3.728.997.988 2.348 1.544 3.757 1.544h53.125c1.409 0 2.76-.556 3.756-1.544.997-.989 1.556-2.33 1.556-3.728v-110.7041c0-1.3981-.559-2.739-1.556-3.7276-.996-.9886-2.347-1.544-3.756-1.544z" fill="url(#b)"/><rect height="132.372" rx="14.5" stroke="#e5e7ee" width="75.5" x="109.667" y="56.7307"/><path d="m132.014 187.543c-6.193-6.164-6.178-16.142.034-22.287 6.211-6.145 16.267-6.129 22.459.035 6.193 6.164 6.177 16.141-.034 22.286s-16.267 6.13-22.459-.034z" fill="#6e43cb"/><path d="m134.62 184.964c-4.907-4.884-4.894-12.79.027-17.658 4.922-4.869 12.889-4.857 17.796.027s4.894 12.79-.027 17.659c-4.922 4.869-12.889 4.856-17.796-.028z" fill="#926ae7"/><path d="m154.858 171.196c2.761 6.338-.179 13.697-6.566 16.436-6.386 2.74-13.802-.177-16.563-6.515-2.761-6.337.178-13.696 6.565-16.436 6.387-2.739 13.803.177 16.564 6.515z" stroke="#fff" stroke-width=".633333"/><g clip-path="url(#f)"><path d="m147.445 173.804-3.188 4.565-5.542-.821 1.071-9.441zm-2.811 5.43-5.542-.821 7.168 4.555 1.568-8.302z" fill="#fff"/></g><rect fill="#fff" height="84" rx="5.5" stroke="#e0e4f0" transform="matrix(0 1 -1 0 383.623 -86.585)" width="29.0483" x="235.104" y="148.519"/><path d="m226.635 170.801h-66.468" stroke="#e5e7ee" stroke-width="1.5"/><rect fill="#fff" height="50.5312" rx="5.5" stroke="#e0e4f0" transform="matrix(0 1 -1 0 317.0405 -127.6675)" width="50.1348" x="222.354" y="94.6865"/><path clip-rule="evenodd" d="m201.339 154.955-12.75 9.081-12.219-9.081-15.672 10.135 1.062 1.054 14.61-9.08 12.219 9.08 12.75-9.08 11.156 9.225 11.603-8.286 1.054.53 1.952-3.578-5.047 1.173 1.063.936-10.625 7.499z" fill="#f4282d" fill-rule="evenodd"/><g clip-path="url(#g)" fill="#0182ff"><path d="m121.719 109.774h-18.229c-1.094 0-1.823.744-1.823 1.861 0 1.116.729 1.86 1.823 1.86h18.229v5.582l9.114-7.442-9.114-7.443z"/><path d="m110.781 128.38h18.229c1.094 0 1.823-.744 1.823-1.861 0-1.116-.729-1.86-1.823-1.86h-18.229v-5.582l-9.114 7.442 9.114 7.443z"/></g><path d="m78.8079 171.013c4.1681 7.675 1.2952 17.232-6.4168 21.346-7.712 4.113-17.3427 1.225-21.5108-6.451-4.1682-7.675-1.2954-17.232 6.4166-21.345 7.7121-4.113 17.3428-1.226 21.511 6.45z" fill="#808aab"/><path d="m75.77 172.579c3.2807 6.042 1.0195 13.564-5.0505 16.801-6.0701 3.238-13.6504.965-16.9311-5.076-3.2807-6.042-1.0195-13.564 5.0506-16.801 6.07-3.238 13.6502-.965 16.931 5.076z" fill="#f7d002"/><ellipse fill="#a4abc2" rx="12.4527" ry="12.4512" transform="matrix(.882388 -.470531 .4773 .878745 64.7792 178.442)"/><path d="m61.4441 180.364-1.7032-6.93 3.5957-1.918 1.2223 5.096 1.378-1.257.4809 1.834-1.2407 1.184.7415 3.263 5.456-2.91.3014 2.452-8.7895 4.687-.9616-3.667-.9785 1.044-.4808-1.834z" fill="#fff"/><path d="m35.8333 102.227 6.0184 85.173 8.8016-.515 7.2004-84.658z" fill="#e0e4f0"/><g clip-rule="evenodd" fill-rule="evenodd"><path d="m43.5466 102.347 25.9723 41.438-35.8085 30.572 2.5861 4.179c30.2457-12.153 46.7148-22.033 49.4071-29.641s-1.8822-23.297-13.7237-47.067z" fill="url(#c)"/><path d="m33.7104 174.357-5.9738 6.433 1.2076 11.188c4.5521.461 6.8281.282 6.8281-.535s-1.3373-1.672-4.0119-2.565v-6.287l4.536-4.055z" fill="#adb8cb"/><path d="m42.7366 186.885v5.562c11.1218 1.109 16.3844.797 15.7877-.937-.5966-1.734-4.1658-2.241-10.7075-1.52v-3.105z" fill="#adb8cb"/><path d="m52.5692 52.4287c-.1283-8.4178.9343-13.1113 3.188-14.0805 3.3804-1.4539 8.5753 3.1556 9.0256 6.6815s-2.4228 6.6243-3.8504 4.9728c-.9517-1.101-1.1597-.116-.6238 2.955z" fill="#f0f7ff"/><path d="m73.57 55.4039c3.0887 1.3585 6.8194 3.4014 11.1922 6.1286 4.3728 2.7273 7.214 5.268 8.5237 7.6222-3.4727 7.7779-5.209 11.6669-5.209 11.6669s-4.3299-1.979-12.9895-5.937z" fill="url(#d)"/><path d="m53.7146 52.4c10.6823.6703 23.1934 1.376 23.1934 6.2689 0 3.2619-1.6428 17.6483-4.9282 43.1591l-36.0636 1.287c-.7655-26.0184-1.2908-40.0625-1.5758-42.1326s-1.9781-4.1382-5.0792-6.2045c9.1807-2.0321 17.3318-2.8248 24.4534-2.3779z" fill="#bac6dc"/><path d="m22.5444 62.8148c-3.2144 8.5334-3.9617 18.9602-2.242 31.2806h15.5309l-.9516-36.5928c-5.0104-4.992-9.1228-3.2212-12.3373 5.3122z" fill="url(#e)"/></g><path d="m114.348 42.4358c-3.232-8.1089.751-17.2619 8.897-20.4436 8.146-3.1818 17.369.8126 20.602 8.9216 3.232 8.1089-.751 17.2616-8.897 20.4433-8.145 3.1818-17.369-.8123-20.602-8.9213z" fill="#e5980d"/><path d="m117.767 41.1001c-2.561-6.4251.595-13.6773 7.049-16.1983 6.454-2.5211 13.763.6438 16.324 7.0689 2.561 6.4252-.595 13.6774-7.049 16.1984s-13.762-.6438-16.324-7.069z" fill="#f9a001"/><path d="m141.528 36.6088c.013 6.6616-5.419 12.0537-12.135 12.0409-6.717-.0128-12.17-5.4257-12.183-12.0872-.013-6.6616 5.419-12.0537 12.136-12.0409 6.716.0128 12.169 5.4257 12.182 12.0872z" stroke="#fff" stroke-width=".633333"/><path d="m134.478 33.837c.087.4444.022.9041-.185 1.3072-.206.403-.543.7266-.956.92.593.1145 1.127.4312 1.509.8947.368.5419.51 1.2027.395 1.8437-.028.3724-.122.7369-.277 1.077-.136.2819-.327.5341-.563.742-.249.2172-.538.3856-.851.4963-.338.1388-.692.2379-1.054.2952-.421.0695-.847.1134-1.273.1314l.004 2.1922-1.326-.0025-.005-2.1476-1.062-.0021.004 2.17-1.341-.0026-.004-2.1996-2.705-.0052.268-1.5898.972.0019c.123.0105.244-.0272.339-.1049.094-.0778.154-.1893.165-.3103l-.007-3.4481-.005-2.5192c-.026-.1742-.119-.332-.259-.4414-.141-.1093-.318-.162-.495-.1471l-.995-.0019-.003-1.4045 2.698.0051-.005-2.1774 1.349.0026.004 2.1253 1.063.0021-.004-2.1254 1.348.0026.005 2.1699c.411.035.819.1003 1.221.1955.344.0873.676.2178.988.3883.305.1594.565.3926.754.6777.187.2967.296.6338.319.9816zm-1.867 4.693c0-.1938-.047-.385-.137-.5576-.082-.1465-.192-.2756-.325-.3796-.15-.1129-.319-.201-.498-.261-.187-.0651-.379-.1201-.573-.1646-.214-.0362-.431-.0614-.648-.0755l-.603-.0012-.979-.0019.006 2.9131 1.205.0023.505-.0362c.143.0003.309-.0366.497-.0734.172-.0344.34-.0813.505-.1402.142-.0501.28-.1095.414-.1776.131-.0667.251-.1544.353-.2594.087-.1029.158-.2179.211-.3414.053-.1401.081-.2885.082-.4383zm-.634-4.1032c.007-.1744-.029-.3481-.106-.5056-.068-.1364-.16-.2599-.272-.3646-.122-.1047-.263-.1856-.415-.2386-.156-.0619-.318-.1095-.483-.1421-.177-.0261-.356-.0413-.535-.0456-.17-.0115-.342-.0118-.512-.001l-.814-.0015.005 2.6084.709.0013.437.0008c.159-.006.317-.0231.474-.0511.128.0003.279-.0515.452-.0957.15-.0299.295-.0822.429-.1553.113-.0698.221-.1466.324-.2297.102-.0929.181-.207.233-.334.051-.1405.076-.2889.074-.4383z" fill="#fff"/><path clip-rule="evenodd" d="m96.7627 66.9405c9.4263-9.8543 14.4763-15.3218 15.1483-16.4027 1.008-1.6213.212-3.9434.883-5.658.67-1.7145 3.401-6.5394 5.05-6.5394 1.099 0 1.099 1.8231 0 5.4694 1.465-1.0075 2.313-1.0075 2.543 0 .345 1.5111-.861 3.0422-1.863 4.0864-.669.6962-1.632 1.3519-2.891 1.9673-3.69 14.1466-7.135 23.3871-10.333 27.7213-3.197 4.3343-8.5343 5.4845-16.01 3.4508z" fill="#f0f7ff" fill-rule="evenodd"/><path clip-rule="evenodd" d="m92.6445 65.943 4.7154.6329-8.037 15.0495-4.0862-2.3z" fill="#e0e4f0" fill-rule="evenodd"/><path clip-rule="evenodd" d="m35.8333 90.1842-17.5-1.0084.9576 4.9196h16.5424z" fill="#e0e4f0" fill-rule="evenodd"/><path clip-rule="evenodd" d="m66.9033 90.281c-3.8889-.6632-5.8333.645-5.8333 3.9245s1.9444 4.5951 5.8333 3.9469z" fill-rule="evenodd" stroke="#2594ff" stroke-width="2"/><path clip-rule="evenodd" d="m65.999 87.6539.5827 13.1191h8.7129l.5623-13.1191z" fill="#2594ff" fill-rule="evenodd"/><path clip-rule="evenodd" d="m35.8333 94.0954 20.545-.9404c3.2729-2.1485 5.4789-2.8171 6.618-2.0057 1.7086 1.2171 2.7198 6.2707-.5956 6.2707-2.2102 0-4.4136 0-6.6103 0-17.6862 3.814-28.1723 4.932-31.4582 3.353-3.2858-1.5795-4.6291-3.8053-4.0297-6.6776z" fill="#f0f7ff" fill-rule="evenodd"/><path clip-rule="evenodd" d="m51.1482 41.0458c.9452-2.2975 2.9011-3.5435 4.916-3.5435 2.015 0 .8798-2.3277 1.4772-3.052.7595-.9209 4.5594-.9209 3.8137 1.9314-.8621 3.2976-2.7977 3.2144-2.9704 4.9786s.8016 4.4176 2.1083 3.8272 2.9908-3.6668 3.6978-2.8001c.7071.8667 2.6822 5.1814 1.1312 6.7593-1.5509 1.578-3.1424 2.1168-4.3875 1.0928-1.2452-1.024-3.741-7.6184-4.3056-6.3352-.5647 1.2832 1.7786 2.9023.3014 4.3067-1.4771 1.4045-4.5519 1.7469-5.272 0-.72-1.7469-1.4554-4.8678-.5101-7.1652z" fill="#2594ff" fill-rule="evenodd"/><ellipse cx="180.417" cy="102.952" fill="#e0e4f0" rx="2.08333" ry="2.06731"/><path d="m185.625 102.952h30.208" stroke="#e0e4f0" stroke-linecap="round" stroke-width="3"/><ellipse cx="180.417" cy="111.221" fill="#e0e4f0" rx="2.08333" ry="2.0673"/><path d="m185.625 111.221h30.208" stroke="#e0e4f0" stroke-linecap="round" stroke-width="3"/><ellipse cx="180.417" cy="119.49" fill="#e0e4f0" rx="2.08333" ry="2.06731"/><path d="m185.625 119.49h30.208" stroke="#e0e4f0" stroke-linecap="round" stroke-width="3"/><ellipse cx="180.417" cy="127.76" fill="#e0e4f0" rx="2.08333" ry="2.0673"/><path d="m185.625 127.76h30.208" stroke="#e0e4f0" stroke-linecap="round" stroke-width="3"/><ellipse cx="180.417" cy="136.029" fill="#e0e4f0" rx="2.08333" ry="2.06731"/><path d="m185.625 136.029h30.208" stroke="#e0e4f0" stroke-linecap="round" stroke-width="3"/></svg>