<svg xmlns="http://www.w3.org/2000/svg" width="312" height="260" fill="none"><path fill="#F0F7FF" d="M170.617 229.603c-70.692 0-128-1.791-128-4s57.308-4 128-4c70.693 0 128 1.791 128 4s-57.307 4-128 4Z"></path><path fill="#808AAB" d="M250.115 208.057c0 8.316-6.742 15.058-15.058 15.058-8.316 0-15.057-6.742-15.057-15.058 0-8.316 6.741-15.057 15.057-15.057s15.058 6.741 15.058 15.057Z"></path><path fill="#A4ABC2" d="M246.863 208.012c0 6.546-5.306 11.852-11.851 11.852-6.546 0-11.852-5.306-11.852-11.852 0-6.545 5.306-11.852 11.852-11.852 6.545 0 11.851 5.307 11.851 11.852Z"></path><circle cx="235.012" cy="208.012" r="11.535" stroke="#fff" stroke-width="0.633"></circle><path fill="#fff" d="m231.349 208.132 1.724-6.585h3.878l-1.292 4.829 1.723-.439-.431 1.756-1.575.439-.862 3.072h5.885l-.862 2.195h-9.481l.862-3.512-1.293.439.431-1.755 1.293-.439Z"></path><path fill="#D0D5E4" fill-rule="evenodd" d="M30.32 118.206c-3.465 6.531-3.465 16.015 0 28.452 3.466 12.437 8.638 37.335 15.517 74.694h4.72c.89-23.632 1.337-41.897 1.337-54.795 0-12.898-.795-30.181-2.385-51.849l-19.188 3.498Z" clip-rule="evenodd"></path><path fill="#ADB8CB" fill-rule="evenodd" d="M45.837 219.754v5.206c10.33 1.038 15.219.746 14.665-.877-.554-1.623-3.87-2.097-9.946-1.422v-2.907h-4.72ZM31.474 211.46l-1.348 5.029c9.71 3.677 14.507 4.66 14.392 2.948-.115-1.711-3.195-3.027-9.239-3.948l.753-2.808-4.558-1.221Z" clip-rule="evenodd"></path><path fill="#EDF1F9" fill-rule="evenodd" d="M39.191 115.951c-2.448 8.75-3.672 16.264-3.672 22.54 0 6.277 1.94 16.115 5.819 29.514-3.431 4.868-5.843 10.145-7.236 15.834-1.393 5.688-2.269 14.895-2.628 27.621l4.558 1.221c7.326-16.686 12.855-32.018 16.589-45.994 3.733-13.977 6.736-29.646 9.008-47.008-4.87-2.898-8.557-4.555-11.06-4.971-2.502-.416-6.295-.001-11.378 1.243Z" clip-rule="evenodd"></path><path fill="#B9C6DC" fill-rule="evenodd" d="M43.08 78.09c-3.932 5.404-8.612 15.525 4.996 12.22 13.608-3.305 23.624-9.231 29.288-13.55 3.776-2.88 8.355-11.575 13.738-26.087L87.5 49.497 70.045 68.744C54.69 71.372 45.702 74.487 43.08 78.09Z" clip-rule="evenodd"></path><rect width="54" height="54" x="129.5" y="20.5" fill="#fff" stroke="#E0E4F0" rx="5.5" transform="rotate(90 129.5 20.5)"></rect><path fill="#E0E4F0" fill-rule="evenodd" d="M81 48.21 82.145 50l20.954-11.508-4.466-1.877 14.877-7.807 1.125.57L118 26l-6.952 1.515 1.473.745-19.04 8.355 5.618 1.877L81 48.21Z" clip-rule="evenodd"></path><path fill="#F4282D" d="M95 46.396a2 2 0 0 1 2-2h2.714a2 2 0 0 1 2 2v22.083a2 2 0 0 1-2 2H97a2 2 0 0 1-2-2V46.396Z"></path><path fill="#F9A001" d="M106.363 38.648a2 2 0 0 1 2-2h2.715a2 2 0 0 1 2 2v29.83a2 2 0 0 1-2 2h-2.715a2 2 0 0 1-2-2v-29.83Z"></path><path fill="#33C15D" d="M117.726 34a2 2 0 0 1 2-2h2.714a2 2 0 0 1 2 2v34.737a2 2 0 0 1-2 2h-2.714a2 2 0 0 1-2-2V34Z"></path><path fill="#F0F7FF" fill-rule="evenodd" d="M51.244 69.96c-.154-10.18 1.121-15.855 3.825-17.027 4.057-1.759 10.29 3.816 10.831 8.08.54 4.263-2.907 8.01-4.62 6.013-1.142-1.331-1.392-.14-.749 3.574l-9.287-.64Z" clip-rule="evenodd"></path><path fill="#2594FF" fill-rule="evenodd" d="M49.538 56.195c1.134-2.779 3.48-4.285 5.899-4.285 2.418 0 1.056-2.815 1.772-3.691.912-1.114 5.472-1.114 4.577 2.336-1.035 3.987-3.357 3.887-3.565 6.02-.207 2.134.962 5.342 2.53 4.628 1.568-.714 3.59-4.434 4.438-3.386.848 1.048 3.218 6.266 1.357 8.174-1.86 1.909-3.77 2.56-5.265 1.322-1.494-1.239-4.489-9.213-5.167-7.661-.677 1.551 2.135 3.51.362 5.208-1.772 1.698-5.462 2.112-6.326 0-.864-2.113-1.747-5.887-.612-8.665Z" clip-rule="evenodd"></path><path fill="#E0E4F0" fill-rule="evenodd" d="M51.893 67.817c-8.685 3.398-14.77 16.5-14.77 24.773 0 .124-2.55 9.114-7.653 26.969 9.474-2.907 16.161-4.195 20.063-3.866 3.901.33 7.933 2.308 12.095 5.934.649-12.554 1.321-20.859 2.016-24.914 1.966-11.467 2.634-14.632.73-21.459-.332-1.193-5.58-10.138-12.48-7.438Z" clip-rule="evenodd"></path><path fill="#E0E4F0" fill-rule="evenodd" d="M55.58 79.09c-3.933 5.404-8.613 15.525 4.995 12.22 13.608-3.305 23.624-9.231 29.288-13.55 3.776-2.88 8.355-11.575 13.738-26.087l-3.602-1.176-17.455 19.247C67.19 72.372 58.201 75.487 55.58 79.09Z" clip-rule="evenodd"></path><path fill="#F0F7FF" fill-rule="evenodd" d="M102.576 43.056c2.213-1.856 4.789-.381 5.352 1.033.563 1.414-.225 2.877-.622 3.272-1.486 2-2.721 3.438-3.706 4.312l-.785 2.302-4.418-.946 1.601-2.532c-.24-1.408.712-5.877 2.578-7.441Z" clip-rule="evenodd"></path><rect width="42.138" height="141.265" x="274.149" y="30.629" stroke="#E5E7EE" rx="5.5" transform="rotate(72.224 274.149 30.629)"></rect><path stroke="#E5E7EE" stroke-linecap="round" stroke-linejoin="round" stroke-width="1.5" d="m191.802 83.627 6.04-8.306 5.403.815 7.116-8.65 19.563 1.795 9.985-9.57 14.271.095L265.631 40"></path><path stroke="#E5E7EE" stroke-width="1.5" d="M272.272 65 193 90.415"></path><path fill="#E6980D" d="M158.557 94.14c-5.086-6.212-4.174-15.37 2.038-20.456 6.211-5.086 15.369-4.174 20.455 2.038 5.086 6.212 4.174 15.37-2.038 20.455-6.211 5.086-15.37 4.174-20.455-2.038Z"></path><path fill="#F9A001" d="M161.163 92.005c-4.03-4.922-3.307-12.178 1.615-16.208 4.922-4.03 12.178-3.306 16.208 1.615 4.03 4.922 3.306 12.178-1.615 16.208-4.922 4.03-12.178 3.307-16.208-1.615Z"></path><circle cx="170.015" cy="84.776" r="11.124" stroke="#fff" stroke-width="0.633" transform="rotate(-17.776 170.015 84.776)"></circle><path fill="#fff" d="M172.753 81.224a1.88 1.88 0 0 1-.373 2.282 2.362 2.362 0 0 1 1.569.362c.473.374.782.915.862 1.512.08.335.1.682.06 1.025-.04.287-.136.563-.284.812-.157.262-.362.491-.604.677a4.31 4.31 0 0 1-.838.557c-.348.18-.707.338-1.075.474l.618 1.929-1.159.371-.606-1.889-.928.298.612 1.908-1.172.376-.62-1.934-2.365.757-.211-1.474.85-.273a.428.428 0 0 0 .323-.507l-.972-3.033-.71-2.216a.639.639 0 0 0-.824-.305l-.87.278-.396-1.235 2.358-.756-.614-1.915 1.179-.378.599 1.87.928-.298-.599-1.87 1.179-.377.612 1.908a7.597 7.597 0 0 1 1.121-.172c.325-.02.652.001.971.064.312.054.604.186.85.383.245.209.435.475.553.775l-.024.014Zm-.316 4.657a1.11 1.11 0 0 0-.275-.452 1.163 1.163 0 0 0-.39-.243 1.61 1.61 0 0 0-.508-.09 5.04 5.04 0 0 0-.547.017 5.746 5.746 0 0 0-.587.117l-.527.169-.856.274.821 2.562 1.054-.338.431-.174c.125-.04.259-.119.413-.204a3.22 3.22 0 0 0 .714-.539 1.24 1.24 0 0 0 .236-.328c.047-.115.076-.236.088-.36a1.178 1.178 0 0 0-.051-.409l-.016-.002Zm-1.703-3.433a.973.973 0 0 0-.235-.415 1.17 1.17 0 0 0-.339-.244 1.177 1.177 0 0 0-.43-.093 2.51 2.51 0 0 0-.461.01 4.048 4.048 0 0 0-.48.112 3.603 3.603 0 0 0-.448.143l-.711.228.736 2.294.619-.198.381-.123c.138-.05.272-.11.401-.178.112-.036.229-.124.368-.212.122-.069.234-.155.331-.258.079-.093.152-.19.218-.293.063-.11.1-.233.11-.36a1.169 1.169 0 0 0-.058-.406l-.002-.007Z"></path><path fill="#ADB8CB" fill-rule="evenodd" d="m267.341 206.083 5.68 6.022-1.121 10.473c-4.229.431-6.343.265-6.343-.5 0-.766 1.242-1.566 3.727-2.402v-5.884l-4.496-3.926 2.553-3.783Z" clip-rule="evenodd"></path><path fill="#F0F7FF" fill-rule="evenodd" d="M277.679 129.894c-2.569 3.175-6.059 6.417-10.66 9.53l-1.989 3.802-3.548-5.905s7.706-3.72 10.493-11.577" clip-rule="evenodd"></path><mask id="a" width="21" height="80" x="245" y="138" maskUnits="userSpaceOnUse" style="mask-type: alpha;"><path fill="#fff" d="m265.501 138.564-6.412 79.26-4.719-.014-9.323-79.246h20.454Z"></path></mask><g mask="url(#a)"><path fill="#E0E4F0" d="m265.501 138.564-6.412 79.26-4.719-.014-9.323-79.246h20.454Z"></path></g><mask id="b" width="48" height="72" x="220" y="138" maskUnits="userSpaceOnUse" style="mask-type: alpha;"><path fill="#fff" d="m261.824 138.565-29.325 38.461 34.842 29.058-2.402 3.912c-26.805-12.051-41.458-21.637-43.959-28.759-2.501-7.121 4.013-21.345 19.543-42.672h21.301Z"></path></mask><g mask="url(#b)"><path fill="url(#c)" d="m261.824 138.565-29.325 38.461 34.842 29.058-2.402 3.912c-26.805-12.051-41.458-21.637-43.959-28.759-2.501-7.121 4.013-21.345 19.543-42.672h21.301Z"></path></g><path fill="#ADB8CB" fill-rule="evenodd" d="M259.088 217.81v5.207c-10.331 1.038-15.219.746-14.665-.877.554-1.623 3.87-2.097 9.946-1.423v-2.907h4.719Z" clip-rule="evenodd"></path><mask id="d" width="77" height="72" x="207" y="69" maskUnits="userSpaceOnUse" style="mask-type: alpha;"><path fill="#fff" d="M234.074 84.501c8.984 1.685 28.986 3.768 35.47 4.58a7.954 7.954 0 0 1 5.018 2.682c5.097 5.87 16.279 21.939 3.117 38.131-1.684-.931-4.078-2.423-5.704-4.15 1.457-4.085 1.576-9.306-1.476-15.708-.104.507-.233 1.01-.39 1.504-4.206 13.262-4.431 24.299-4.421 26.842a.84.84 0 0 1-.529.785c-5.536 2.208-20.063.894-23.64.363a1.197 1.197 0 0 1-1.006-1.359c1.755-12.658-7.255-33.482-9.635-38.698a3.462 3.462 0 0 0-1.728-1.72c-13.609-6.128-19.525-15.56-21.924-24.056 2.075-2.772 5.291-3.983 7.533-4.507 3.603 6.675 9.584 13.486 19.315 15.311Z"></path></mask><g mask="url(#d)"><path fill="#E0E4F0" d="M234.074 84.501c8.984 1.685 28.986 3.768 35.47 4.58a7.954 7.954 0 0 1 5.018 2.682c5.097 5.87 16.279 21.939 3.117 38.131-1.684-.931-4.078-2.423-5.704-4.15 1.457-4.085 1.576-9.306-1.476-15.708-.104.507-.233 1.01-.39 1.504-4.206 13.262-4.431 24.299-4.421 26.842a.84.84 0 0 1-.529.785c-5.536 2.208-20.063.894-23.64.363a1.197 1.197 0 0 1-1.006-1.359c1.755-12.658-7.255-33.482-9.635-38.698a3.462 3.462 0 0 0-1.728-1.72c-13.609-6.128-19.525-15.56-21.924-24.056 2.075-2.772 5.291-3.983 7.533-4.507 3.603 6.675 9.584 13.486 19.315 15.311Z"></path></g><path fill="#F0F7FF" fill-rule="evenodd" d="M254 87.523c.154-10.18-2.408-21.995-5.112-23.167-4.057-1.758-10.291 3.816-10.831 8.08-.54 4.264 2.907 8.01 4.621 6.014 1.142-1.332 1.465 4.36.822 8.073l10.5 1Z" clip-rule="evenodd"></path><path fill="#2594FF" fill-rule="evenodd" d="M247.549 72.35s2.123-8.312-5.019-7.744l-1.569 1.33s-3.032-4.217 1.065-6.746c4.097-2.529 9.288-1.238 11.655 4.38 2.366 5.616 3.039 9.461.255 12.513-2.783 3.052-4.329.029-4.329.029s1.416-2.744.612-4.067c-.803-1.323-2.203.494-2.203.494l-.467-.189Z" clip-rule="evenodd"></path><path fill="#F0F7FF" fill-rule="evenodd" d="M209.855 54.46c1.317-2.077 3.194-5.662 2.131-7.868-1.566-3.253-5.361-2.946-6.782-1.648-1.421 1.297-1.298 3.36-1.05 4.014l2.494 5.581c-.27 1.173-2.066 9.774.692 19.59 2.119-2.845 5.403-4.087 7.693-4.624-3.897-7.254-5.07-14.35-5.178-15.046Z" clip-rule="evenodd"></path><rect width="38" height="51" x="67.001" y="174" fill="#33C15D" rx="6"></rect><path fill="#6E43CB" d="M107.205 147.165c-2.911-7.38.71-15.722 8.09-18.634 7.379-2.912 15.721.71 18.633 8.089 2.912 7.379-.71 15.722-8.089 18.633-7.379 2.912-15.722-.709-18.634-8.088Z"></path><path fill="#926AE7" d="M110.302 145.943c-2.308-5.847.562-12.457 6.409-14.765 5.847-2.307 12.457.563 14.764 6.41 2.307 5.847-.562 12.457-6.409 14.764-5.847 2.307-12.457-.562-14.764-6.409Z"></path><circle cx="120.687" cy="141.687" r="11.366" stroke="#fff" stroke-width="0.633"></circle><g clip-path="url(#e)"><path fill="#fff" d="m124.986 141.208-4.298 2.676-4.304-2.676 4.304-7.515 4.298 7.515Zm-4.298 3.534-4.304-2.675 4.304 6.383 4.304-6.383-4.304 2.675Z"></path></g><path fill="#2594FF" fill-rule="evenodd" d="M104.673 119.237c2.095 3.292-3.379 7.236-3.039 10.652.341 3.417-3.159 4.977-8.31 6.353-5.15 1.374-7.616 10.519-13.681 12.349-6.066 1.831-3.678 5.542-6.985 7.067-3.306 1.526 2.137-4.979-9.881-2.508-12.017 2.47-13.462-9.703-10.86-14.105 2.604-4.402 5.837-2.296 4.935-6.651-.902-4.356 2.89-6.189 8.32-6.542 5.431-.353 3.534-5.456 4.414-9.313.88-3.855 10.504-1.704 15.095-9.529 4.59-7.824 16.296.906 16.296.906 5.675 5.575 1.601 8.029 3.696 11.321Z" clip-rule="evenodd"></path><path fill="#D0D5E4" fill-rule="evenodd" d="M72.066 169.886c20.574-11.043 33.302-15.16 38.183-12.353 4.881 2.808 14.055 18.373 27.523 46.696l-5.202 4.177-22.321-31.758-38.183-6.762Z" clip-rule="evenodd"></path><path fill="#E0E4F0" fill-rule="evenodd" d="m97.001 124.409 17.061-6.013 14.439-15.896 2.5 3.5-11.181 18.409-22.819 16.558v-16.558Z" clip-rule="evenodd"></path><path fill="#F0F7FF" fill-rule="evenodd" d="M137.276 98.263c.501-2.844-2.064-4.338-3.57-4.118-1.506.22-2.38 1.633-2.523 2.175-.956 1.886-1.566 3.474-1.83 4.763l-3.258 3.667c.23.778.6 1.355 1.111 1.733.511.377 1.497.648 2.959.812l1.956-3.078c1.34-.496 4.734-3.556 5.155-5.954Z" clip-rule="evenodd"></path><path fill="#E0E4F0" fill-rule="evenodd" d="M67.574 169.886c-.37 13.014 4.655 19.131 15.074 18.353 10.419-.778 19.107-3.927 26.064-9.447v47.766l5.439 1.725c7.439-39.543 10.249-60.319 8.43-62.327-1.818-2.008-20.154-.698-55.007 3.93Z" clip-rule="evenodd"></path><path fill="#ADB8CB" d="M119.625 238.691c.091-.544.006-1.023-.257-1.438-1.033-1.634-2.974-2.196-4.283-4.513-.872-1.545-1.247-3.008-1.123-4.389l-4.789-2.328-3.172 6.528 13.624 6.14ZM148.39 206.034c-.388-.392-.827-.603-1.317-.633-1.929-.118-3.521 1.127-6.166.833-1.763-.196-3.168-.749-4.216-1.658l-4.69 2.522 3.438 6.392 12.951-7.456Z"></path><path fill="#F0F7FF" fill-rule="evenodd" d="M92.678 108.023c4.12 1.517 6.18 3.537 6.18 6.061 0 2.523-1.162 4.095-3.487 4.713l3.128 5.726-12.5.955 5.453-7.49c-1.684-1.38-2.185-2.455-1.502-3.227 1.023-1.157 3.404-1.254 3.404-3.205 0-1.301-.225-2.479-.676-3.533Z" clip-rule="evenodd"></path><mask id="f" width="41" height="50" x="62" y="122" maskUnits="userSpaceOnUse" style="mask-type: alpha;"><path fill="#fff" d="M62.813 169.171c19.228 3.304 30.65 2.892 34.264-1.235 3.614-4.128 4.067-22.67 4.924-44.913l-14.288-.835-24.9 46.983Z"></path></mask><g mask="url(#f)"><path fill="#B9C6DC" d="M62.813 169.171c19.228 3.304 30.65 2.892 34.264-1.235 3.614-4.128.567-21.67 1.424-43.913h-12l-23.688 45.148Z"></path></g><path fill="#E0E4F0" fill-rule="evenodd" d="M92.52 126.734c-4.118-4.592-11.324-2.954-11.324 6.567s4.763 23.863 8.885 25.681c2.656 1.17 15.148 1.17 23.163 0 5.114-.748 14.257-2.959 14.257-2.959l-2.5-4.075h-29.25c.59-13.748-.487-22.153-3.232-25.214Z" clip-rule="evenodd"></path><path fill="#F0F7FF" fill-rule="evenodd" d="M124.242 151.949h4.583l2.12-3.855c1.326 2.486 1.267 4.596-.176 6.328-.734.88-2.062 1.473-3.984 1.778-.654.324-1.582.484-2.784.48l.241-4.731Z" clip-rule="evenodd"></path><defs><linearGradient id="c" x1="243.9" x2="243.9" y1="138.565" y2="209.996" gradientUnits="userSpaceOnUse"><stop stop-color="#EFF3F9"></stop><stop offset="1" stop-color="#EAEDF6"></stop></linearGradient><clipPath id="e"><path fill="#fff" d="M116.384 133.693h8.608v14.757h-8.608z"></path></clipPath></defs></svg>